<?xml version="1.0" encoding="utf-8"?>
<!-- Generator: Adobe Illustrator 16.0.4, SVG Export Plug-In . SVG Version: 6.00 Build 0)  -->
<!DOCTYPE svg PUBLIC "-//W3C//DTD SVG 1.1//EN" "http://www.w3.org/Graphics/SVG/1.1/DTD/svg11.dtd">
<svg version="1.1" id="Layer_1" xmlns="http://www.w3.org/2000/svg" xmlns:xlink="http://www.w3.org/1999/xlink" x="0px" y="0px"
	 width="160.334px" height="35.314px" viewBox="58.176 71.487 160.334 35.314"
	 enable-background="new 58.176 71.487 160.334 35.314" xml:space="preserve">
<g>
	<path fill="#CDCCAC" d="M126.108,83.494c-0.811,0.139-1.987-0.005-2.61-0.266c1.296-0.106,2.171-0.695,2.509-1.494
		c-0.466,0.287-1.916,0.6-2.715,0.302c-0.041-0.187-0.082-0.366-0.127-0.527c-0.609-2.241-2.697-4.047-4.885-3.83
		c0.176-0.071,0.355-0.137,0.537-0.197c0.239-0.087,1.652-0.317,1.43-0.816c-0.188-0.438-1.914,0.331-2.239,0.433
		c0.429-0.16,1.139-0.438,1.214-0.933c-0.656,0.091-1.303,0.402-1.801,0.854c0.18-0.193,0.317-0.43,0.346-0.684
		c-1.754,1.122-2.777,3.38-3.606,5.573c-0.65-0.63-1.228-1.128-1.745-1.406c-1.453-0.776-3.188-1.59-5.912-2.604
		c-0.084,0.903,0.446,2.104,1.968,2.9c-0.328-0.045-0.933,0.055-1.416,0.17c0.197,1.035,0.839,1.886,2.581,2.298
		c-0.797,0.052-1.208,0.235-1.58,0.624c0.362,0.72,1.247,1.564,2.837,1.392c-1.769,0.763-0.722,2.176,0.718,1.966
		c-2.454,2.538-6.325,2.351-8.547,0.229c5.801,7.914,18.415,4.68,20.293-2.942C124.768,84.545,125.594,84.046,126.108,83.494z"/>
	<g>
		
			<rect x="58.852" y="76.547" fill="#20231E" stroke="#CDCCAC" stroke-width="1.352" stroke-linecap="round" stroke-linejoin="round" stroke-miterlimit="10" width="26.288" height="14.44"/>
		
			<polygon fill="#20231E" stroke="#CDCCAC" stroke-width="1.352" stroke-linecap="round" stroke-linejoin="round" stroke-miterlimit="10" points="
			58.99,90.938 85.001,90.938 71.996,83.459 		"/>
		
			<polygon fill="#20231E" stroke="#CDCCAC" stroke-width="1.352" stroke-linecap="round" stroke-linejoin="round" stroke-miterlimit="10" points="
			58.99,76.56 85.001,76.56 71.996,85.633 		"/>
	</g>
	<g>
		<path fill="#CDCCAC" d="M139.418,85.226c0,3.989,3.232,7.222,7.221,7.222h7.438c3.988,0,7.221-3.232,7.221-7.222l0,0
			c0-3.989-3.232-7.222-7.221-7.222h-7.438C142.651,78.004,139.418,81.236,139.418,85.226L139.418,85.226z"/>
		<path fill="#CDCCAC" d="M155.375,90.778c0,0-0.578,4.718,2.6,5.777c0,0-6.549,0-6.645-5.2L155.375,90.778z"/>
	</g>
	<g>
		<path fill="#CDCCAC" d="M218.51,106.74l-0.023-9.097c-0.303-4.488-4.039-7.993-8.553-7.993c-1.072,0-2.098,0.199-3.045,0.561
			c0.186,0.701,0.289,1.436,0.289,2.195c0,3.657-2.303,6.785-5.533,8.016c0.885,3.331,3.727,5.873,7.217,6.312
			c0.166,0.019,0.332,0.035,0.502,0.047c0.014,0,0.027,0.003,0.045,0.004c0.172,0.012,0.348,0.018,0.525,0.018
			c0.164,0,0.328-0.006,0.49-0.016v-4.426c0,0,0,0-0.002,0c-0.16,0.019-0.322,0.03-0.488,0.03c-0.178,0-0.352-0.014-0.525-0.035
			c-0.02-0.003-0.039-0.007-0.061-0.01c-0.164-0.024-0.328-0.058-0.486-0.099c-1.779-0.476-3.094-2.095-3.094-4.021
			c0-2.296,1.869-4.165,4.166-4.165c2.207,0,4.033,1.723,4.158,3.926c0.006,0.079,0.006,0.159,0.006,0.239v8.515H218.51z"/>
		<path fill="#CDCCAC" d="M206.889,90.211c-0.885-3.331-3.727-5.873-7.217-6.312c-0.164-0.02-0.332-0.036-0.5-0.048
			c-0.016,0-0.029-0.002-0.045-0.003c-0.174-0.012-0.351-0.018-0.526-0.018c-0.165,0-0.327,0.007-0.489,0.016v4.426l0,0
			c0.16-0.019,0.323-0.031,0.489-0.031c0.179,0,0.351,0.015,0.523,0.037c0.021,0.003,0.04,0.006,0.062,0.009
			c0.166,0.024,0.328,0.058,0.486,0.099c1.779,0.476,3.094,2.096,3.094,4.021c0,2.299-1.868,4.166-4.165,4.166
			c-2.206,0-4.034-1.724-4.159-3.926c-0.004-0.079-0.007-0.159-0.007-0.24V71.487h-4.41l0.024,21.502
			c0.301,4.489,4.038,7.993,8.552,7.993c1.071,0,2.098-0.199,3.044-0.561c-0.186-0.7-0.287-1.436-0.287-2.196
			C201.358,94.569,203.659,91.441,206.889,90.211z"/>
		<path fill="#CDCCAC" d="M207.178,92.406c0-0.76-0.104-1.494-0.289-2.195c-3.23,1.23-5.531,4.358-5.531,8.015
			c0,0.761,0.102,1.496,0.287,2.196C204.875,99.191,207.178,96.063,207.178,92.406z"/>
	</g>
</g>
</svg>
