<?xml version="1.0" encoding="utf-8"?>
<!-- Generator: Adobe Illustrator 16.0.4, SVG Export Plug-In . SVG Version: 6.00 Build 0)  -->
<!DOCTYPE svg PUBLIC "-//W3C//DTD SVG 1.1//EN" "http://www.w3.org/Graphics/SVG/1.1/DTD/svg11.dtd">
<svg version="1.1" id="Layer_1" xmlns="http://www.w3.org/2000/svg" xmlns:xlink="http://www.w3.org/1999/xlink" x="0px" y="0px"
	 width="90px" height="90px" viewBox="140 -5 90 90" enable-background="new 140 -5 90 90" xml:space="preserve">
<g>
	<rect x="140" y="-5" opacity="0.4" fill="#FFFFFF" width="90" height="90"/>
	<g>
		<path fill="#CDC935" d="M213.5,75.213l-0.048-18.205c-0.604-8.983-8.082-15.997-17.113-15.997c-2.146,0-4.196,0.399-6.092,1.121
			c0.373,1.405,0.574,2.877,0.574,4.396c0,7.318-4.604,13.576-11.068,16.038c1.77,6.666,7.457,11.751,14.44,12.628
			c0.33,0.042,0.665,0.075,1.003,0.098c0.029,0,0.059,0.004,0.09,0.005c0.348,0.022,0.699,0.037,1.053,0.037
			c0.329,0,0.655-0.015,0.98-0.032v-8.856c0,0,0,0-0.002,0c-0.321,0.039-0.647,0.062-0.979,0.062c-0.355,0-0.703-0.028-1.047-0.071
			c-0.042-0.005-0.082-0.013-0.125-0.018c-0.331-0.05-0.655-0.117-0.974-0.2c-3.557-0.951-6.189-4.19-6.189-8.048
			c0-4.593,3.737-8.333,8.335-8.333c4.417,0,8.07,3.449,8.321,7.854c0.01,0.159,0.015,0.32,0.015,0.479v17.043H213.5z"/>
		<path fill="#1E3738" d="M190.247,42.132c-1.77-6.663-7.457-11.751-14.439-12.624c-0.331-0.042-0.666-0.076-1.004-0.098
			c-0.028-0.001-0.059-0.004-0.09-0.006c-0.348-0.024-0.699-0.036-1.052-0.036c-0.331,0-0.656,0.013-0.981,0.032v8.856
			c0.001,0,0.001,0,0.001,0c0.323-0.041,0.649-0.063,0.98-0.063c0.354,0,0.702,0.028,1.046,0.073
			c0.043,0.005,0.083,0.012,0.125,0.018c0.332,0.047,0.655,0.114,0.975,0.198c3.558,0.951,6.189,4.191,6.189,8.045
			c0,4.598-3.739,8.336-8.335,8.336c-4.417,0-8.071-3.448-8.321-7.855c-0.01-0.158-0.016-0.319-0.016-0.48V4.667H156.5l0.048,43.024
			c0.604,8.986,8.082,15.998,17.114,15.998c2.144,0,4.196-0.402,6.091-1.124c-0.372-1.402-0.574-2.873-0.574-4.396
			C179.179,50.854,183.783,44.596,190.247,42.132z"/>
		<path fill="#141914" d="M190.821,46.527c0-1.519-0.201-2.99-0.574-4.396c-6.464,2.464-11.068,8.723-11.068,16.038
			c0,1.522,0.202,2.993,0.574,4.396C186.218,60.104,190.821,53.846,190.821,46.527z"/>
	</g>
</g>
</svg>
