<?xml version="1.0" encoding="utf-8"?>
<!-- Generator: Adobe Illustrator 16.0.0, SVG Export Plug-In . SVG Version: 6.00 Build 0)  -->
<!DOCTYPE svg PUBLIC "-//W3C//DTD SVG 1.1//EN" "http://www.w3.org/Graphics/SVG/1.1/DTD/svg11.dtd">
<svg version="1.1" id="Layer_1" xmlns="http://www.w3.org/2000/svg" xmlns:xlink="http://www.w3.org/1999/xlink" x="0px" y="0px"
	 width="48.47px" height="58.234px" viewBox="10.5 8 48.47 58.234" enable-background="new 10.5 8 48.47 58.234"
	 xml:space="preserve">
<g>
	<g>
		<path fill="#2C43C6" d="M58.97,66.234l-0.039-15.027c-0.499-7.416-6.671-13.206-14.126-13.206c-1.772,0-3.464,0.33-5.029,0.925
			c0.308,1.161,0.473,2.375,0.473,3.629c0,6.04-3.8,11.206-9.136,13.238c1.462,5.503,6.156,9.7,11.919,10.424
			c0.274,0.035,0.55,0.062,0.827,0.081c0.024,0,0.05,0.004,0.076,0.005c0.286,0.018,0.577,0.03,0.869,0.03
			c0.271,0,0.54-0.013,0.809-0.026v-7.311c0,0,0,0-0.002,0c-0.265,0.032-0.535,0.051-0.809,0.051c-0.292,0-0.579-0.022-0.864-0.059
			c-0.033-0.004-0.067-0.011-0.103-0.015c-0.273-0.041-0.54-0.097-0.804-0.165c-2.937-0.785-5.109-3.458-5.109-6.644
			c0-3.791,3.086-6.879,6.88-6.879c3.646,0,6.662,2.848,6.868,6.483c0.01,0.132,0.013,0.265,0.013,0.396v14.068H58.97L58.97,66.234z
			"/>
		<path fill="#23282D" d="M39.775,38.926c-1.461-5.5-6.155-9.7-11.918-10.42c-0.274-0.035-0.549-0.062-0.829-0.081
			c-0.024-0.001-0.049-0.002-0.075-0.005c-0.287-0.021-0.576-0.029-0.868-0.029c-0.273,0-0.542,0.01-0.81,0.026v7.31l0,0
			c0.267-0.033,0.537-0.051,0.81-0.051c0.292,0,0.579,0.023,0.863,0.061c0.036,0.004,0.068,0.009,0.104,0.015
			c0.273,0.039,0.541,0.095,0.805,0.164c2.937,0.785,5.109,3.459,5.109,6.642c0,3.795-3.087,6.88-6.881,6.88
			c-3.646,0-6.663-2.846-6.869-6.483c-0.008-0.131-0.012-0.264-0.012-0.396V8h-7.286l0.04,35.516
			c0.499,7.418,6.672,13.207,14.127,13.207c1.77,0,3.463-0.333,5.028-0.93c-0.307-1.157-0.474-2.372-0.474-3.629
			C30.639,46.126,34.44,40.961,39.775,38.926z"/>
		<path fill="#141914" d="M40.249,42.556c0-1.256-0.166-2.469-0.473-3.63c-5.335,2.036-9.136,7.201-9.136,13.239
			c0,1.257,0.167,2.472,0.474,3.629C36.449,53.762,40.249,48.596,40.249,42.556z"/>
	</g>
</g>
</svg>
