<?xml version="1.0" encoding="utf-8"?>
<!-- Generator: Adobe Illustrator 16.0.0, SVG Export Plug-In . SVG Version: 6.00 Build 0)  -->
<!DOCTYPE svg PUBLIC "-//W3C//DTD SVG 1.1//EN" "http://www.w3.org/Graphics/SVG/1.1/DTD/svg11.dtd">
<svg version="1.1" id="Layer_1" xmlns="http://www.w3.org/2000/svg" xmlns:xlink="http://www.w3.org/1999/xlink" x="0px" y="0px"
	 width="50px" height="60px" viewBox="0 0 50 60" enable-background="new 0 0 50 60" xml:space="preserve">
<g>
	<path fill="#CDC935" d="M45.896,56.384l-0.034-13.256c-0.44-6.541-5.886-11.648-12.462-11.648c-1.562,0-3.057,0.291-4.437,0.816
		c0.271,1.022,0.419,2.095,0.419,3.201c0,5.328-3.354,9.886-8.06,11.68c1.288,4.854,5.43,8.557,10.515,9.195
		c0.24,0.029,0.484,0.053,0.73,0.07c0.021,0,0.043,0.003,0.064,0.004c0.254,0.017,0.51,0.026,0.768,0.026
		c0.24,0,0.477-0.01,0.713-0.022V50c0,0,0,0-0.001,0c-0.233,0.028-0.471,0.046-0.712,0.046c-0.26,0-0.512-0.021-0.764-0.053
		c-0.029-0.004-0.059-0.01-0.09-0.014c-0.24-0.035-0.478-0.084-0.709-0.145c-2.591-0.692-4.508-3.053-4.508-5.859
		c0-3.346,2.723-6.069,6.07-6.069c3.217,0,5.877,2.511,6.06,5.72c0.007,0.115,0.01,0.232,0.01,0.35v12.408H45.896z"/>
	<path fill="#1E3738" d="M28.964,32.296c-1.288-4.854-5.431-8.557-10.515-9.194c-0.241-0.03-0.485-0.054-0.73-0.07
		c-0.021-0.001-0.043-0.003-0.065-0.005c-0.253-0.017-0.509-0.025-0.767-0.025c-0.24,0-0.478,0.01-0.714,0.022v6.449
		c0.001,0,0.001,0,0.001,0c0.234-0.028,0.472-0.046,0.713-0.046c0.259,0,0.512,0.021,0.763,0.054c0.03,0.004,0.06,0.009,0.09,0.014
		c0.242,0.034,0.478,0.083,0.709,0.144c2.591,0.692,4.507,3.053,4.507,5.859c0,3.347-2.723,6.069-6.07,6.069
		c-3.216,0-5.877-2.511-6.06-5.72c-0.006-0.115-0.01-0.232-0.01-0.35V5.014H4.39l0.035,31.331
		c0.44,6.542,5.885,11.648,12.462,11.648c1.562,0,3.057-0.291,4.437-0.816c-0.271-1.021-0.419-2.094-0.419-3.201
		C20.904,38.647,24.257,34.089,28.964,32.296z"/>
	<path fill="#151915" d="M29.383,35.497c0-1.106-0.147-2.179-0.419-3.201c-4.707,1.793-8.06,6.352-8.06,11.68
		c0,1.107,0.147,2.18,0.419,3.201C26.029,45.383,29.383,40.825,29.383,35.497z"/>
</g>
</svg>
