<?xml version="1.0" encoding="utf-8"?>
<!-- Generator: Adobe Illustrator 16.0.4, SVG Export Plug-In . SVG Version: 6.00 Build 0)  -->
<!DOCTYPE svg PUBLIC "-//W3C//DTD SVG 1.1//EN" "http://www.w3.org/Graphics/SVG/1.1/DTD/svg11.dtd">
<svg version="1.1" id="Layer_1" xmlns="http://www.w3.org/2000/svg" xmlns:xlink="http://www.w3.org/1999/xlink" x="0px" y="0px"
	 width="892.996px" height="533.825px" viewBox="-281.205 -134.621 892.996 533.825"
	 enable-background="new -281.205 -134.621 892.996 533.825" xml:space="preserve">
<g>
	<g>
		<g>
			<path fill="none" stroke="#20231E" stroke-width="3" stroke-miterlimit="10" d="M-22.181,269.69
				c0,71.527-57.984,129.514-129.512,129.514s-129.512-57.986-129.512-129.514c0-71.525,57.984-129.512,129.512-129.512
				S-22.181,198.165-22.181,269.69z"/>
			<g>
				<text transform="matrix(1 0 0 1 -227.1758 279.502)" fill="#141914" font-family="'SourceSansPro-Light'" font-size="59">design</text>
			</g>
		</g>
		<g>
			<g>
				<text transform="matrix(1 0 0 1 68.6709 283.3027)" fill="#141914" font-family="'SourceSansPro-Light'" font-size="59">develop</text>
			</g>
			<circle fill="none" stroke="#20231E" stroke-width="3" stroke-miterlimit="10" cx="165.293" cy="269.692" r="129.512"/>
		</g>
		<g>
			<g>
				<text transform="matrix(1 0 0 1 433.9438 283.3027)" fill="#141914" font-family="'SourceSansPro-Light'" font-size="59">cms</text>
			</g>
			<circle fill="none" stroke="#20231E" stroke-width="3" stroke-miterlimit="10" cx="482.279" cy="269.692" r="129.512"/>
		</g>
	</g>
	<g>
		<g>
			<path fill="#20231E" stroke="#20231E" stroke-width="3" stroke-miterlimit="10" d="M-22.181-5.109
				c0,71.527-57.984,129.514-129.512,129.514S-281.205,66.418-281.205-5.109c0-71.525,57.984-129.512,129.512-129.512
				S-22.181-76.635-22.181-5.109z"/>
			<g>
				<g>
					
						<path fill="none" stroke="#EDEABC" stroke-width="3.5829" stroke-linecap="round" stroke-linejoin="round" stroke-miterlimit="10" d="
						M-123.858-52.511l-27.835-53.794l-27.85,53.794V74.14c0,5.494,4.453,9.946,9.946,9.946h35.808c5.493,0,9.945-4.452,9.945-9.946
						L-123.858-52.511z"/>
					
						<line fill="none" stroke="#EDEABC" stroke-width="3.5829" stroke-linecap="round" stroke-linejoin="round" stroke-miterlimit="10" x1="-179.21" y1="43.972" x2="-124.175" y2="43.972"/>
					
						<line fill="none" stroke="#EDEABC" stroke-width="3.5829" stroke-linecap="round" stroke-linejoin="round" stroke-miterlimit="10" x1="-179.535" y1="-52.511" x2="-123.851" y2="-52.511"/>
					<g>
						
							<line fill="none" stroke="#EDEABC" stroke-width="3.5829" stroke-linecap="round" stroke-linejoin="round" stroke-miterlimit="10" x1="-166.612" y1="-51.846" x2="-166.612" y2="43.637"/>
						
							<line fill="none" stroke="#EDEABC" stroke-width="3.5829" stroke-linecap="round" stroke-linejoin="round" stroke-miterlimit="10" x1="-151.693" y1="-51.846" x2="-151.693" y2="43.637"/>
						
							<line fill="none" stroke="#EDEABC" stroke-width="3.5829" stroke-linecap="round" stroke-linejoin="round" stroke-miterlimit="10" x1="-136.773" y1="-51.846" x2="-136.773" y2="43.637"/>
					</g>
				</g>
				<g>
					
						<polygon fill="#20231E" stroke="#EDEABC" stroke-width="3.5829" stroke-linecap="round" stroke-linejoin="round" stroke-miterlimit="10" points="
						-144.101,-91.632 -151.693,-106.305 -159.122,-91.955 -159.19,-91.632 -144.934,-91.632 					"/>
					
						<line fill="none" stroke="#EDEABC" stroke-width="3.5829" stroke-linecap="round" stroke-linejoin="round" stroke-miterlimit="10" x1="-179.21" y1="43.972" x2="-124.175" y2="43.972"/>
					
						<line fill="none" stroke="#EDEABC" stroke-width="3.5829" stroke-linecap="round" stroke-linejoin="round" stroke-miterlimit="10" x1="-179.535" y1="-52.511" x2="-123.851" y2="-52.511"/>
					<g>
						
							<line fill="none" stroke="#EDEABC" stroke-width="3.5829" stroke-linecap="round" stroke-linejoin="round" stroke-miterlimit="10" x1="-166.612" y1="-51.846" x2="-166.612" y2="43.637"/>
						
							<line fill="none" stroke="#EDEABC" stroke-width="3.5829" stroke-linecap="round" stroke-linejoin="round" stroke-miterlimit="10" x1="-151.693" y1="-51.846" x2="-151.693" y2="43.637"/>
						
							<line fill="none" stroke="#EDEABC" stroke-width="3.5829" stroke-linecap="round" stroke-linejoin="round" stroke-miterlimit="10" x1="-136.773" y1="-51.846" x2="-136.773" y2="43.637"/>
					</g>
				</g>
			</g>
		</g>
		<g>
			<circle fill="#20231E" stroke="#20231E" stroke-width="3" stroke-miterlimit="10" cx="165.293" cy="-5.108" r="129.512"/>
			<g>
				<path fill="none" stroke="#EDEABC" stroke-width="2.632" stroke-miterlimit="10" d="M229.157-15.831
					c7.135-7.139,10.674-16.509,10.618-25.863l-19.179,10.255l-20.316-8.109l4.427-21.425l19.393-10.363
					c-14.133-9.766-33.65-8.359-46.229,4.219c-8.521,8.521-11.907,20.226-10.175,31.283l-62.499,62.499
					c-7.823,7.823-7.822,20.507,0,28.329l1.848,1.848c7.824,7.825,20.508,7.825,28.332,0l62.496-62.498
					C208.932-3.926,220.635-7.312,229.157-15.831z M112.486,49.554c-3.741-3.742-3.741-9.808,0-13.549
					c3.741-3.742,9.808-3.742,13.549,0c3.742,3.741,3.742,9.807,0,13.549C122.293,53.296,116.227,53.296,112.486,49.554z"/>
				<path fill="#20231E" stroke="#20231E" stroke-width="9.6508" stroke-miterlimit="10" d="M181.3-8.14l-3.558,3.557
					l-46.198-46.199c1.137-1.491-1.312-6.034-2.371-7.094l-22.236-16.692c-1.087-1.088-3.072-0.868-4.433,0.494l-2.052,2.052
					c-1.361,1.361-1.582,3.346-0.495,4.436l16.693,22.234c1.061,1.061,5.604,3.509,7.094,2.371l46.197,46.198l-3.559,3.56
					c-3.108,3.108-2.873,8.387,0.53,11.788l44.035,44.036c3.401,3.4,8.678,3.639,11.786,0.528l14.918-14.917
					c3.108-3.107,2.872-8.387-0.529-11.787L193.087-7.61C189.687-11.011,184.409-11.249,181.3-8.14z"/>
				<path fill="none" stroke="#EDEABC" stroke-width="2.632" stroke-miterlimit="10" d="M181.3-8.14l-3.558,3.557l-46.198-46.199
					c1.137-1.491-1.312-6.034-2.371-7.094l-22.236-16.692c-1.087-1.088-3.072-0.868-4.433,0.494l-2.052,2.052
					c-1.361,1.361-1.582,3.346-0.495,4.436l16.693,22.234c1.061,1.061,5.604,3.509,7.094,2.371l46.197,46.198l-3.559,3.56
					c-3.108,3.108-2.873,8.387,0.53,11.788l44.035,44.036c3.401,3.4,8.678,3.639,11.786,0.528l14.918-14.917
					c3.108-3.107,2.872-8.387-0.529-11.787L193.087-7.61C189.687-11.011,184.409-11.249,181.3-8.14z"/>
			</g>
		</g>
		<g>
			<circle fill="#20231E" stroke="#20231E" stroke-width="3" stroke-miterlimit="10" cx="482.279" cy="-5.108" r="129.512"/>
			<g>
				
					<path fill="none" stroke="#EDEABC" stroke-width="2.6115" stroke-linecap="round" stroke-linejoin="round" stroke-miterlimit="10" d="
					M553.915-34.749l12.468-11.84l-11.696-14.964l-14.5,9.239c-3.817-3.033-8.128-5.496-12.822-7.254l0.443-17.185l-18.85-2.311
					l-3.721,16.784c-4.979,0.571-9.76,1.92-14.195,3.942l-11.841-12.468l-14.964,11.695l9.239,14.502
					c-3.032,3.818-5.497,8.129-7.253,12.823l-17.186-0.444l-2.312,18.85l16.786,3.721c0.568,4.979,1.92,9.759,3.94,14.194
					l-12.467,11.841l11.695,14.963l14.501-9.237c3.818,3.032,8.13,5.497,12.824,7.252l-0.444,17.186l18.85,2.312l3.721-16.785
					c4.979-0.569,9.76-1.92,14.195-3.942l11.841,12.468l14.962-11.696l-9.236-14.501c3.031-3.816,5.494-8.129,7.252-12.822
					l17.184,0.444l2.312-18.852l-16.783-3.721C557.286-25.534,555.936-30.313,553.915-34.749z M507.795,8.465
					c-13.018-1.595-22.276-13.442-20.682-26.46c1.597-13.02,13.441-22.277,26.459-20.682c13.019,1.596,22.278,13.442,20.683,26.459
					C532.66,0.8,520.812,10.062,507.795,8.465z"/>
				
					<path fill="none" stroke="#EDEABC" stroke-width="2.6115" stroke-linecap="round" stroke-linejoin="round" stroke-miterlimit="10" d="
					M391.891,0.661c-0.649,2.102-1.038,4.222-1.185,6.324l-11.368,3.772l3.098,13.587l11.887-1.529
					c2.109,3.703,5.061,6.936,8.689,9.377l-2.417,11.73l13.314,4.11l4.615-11.052c4.374,0.025,8.633-0.979,12.463-2.85l8.956,7.965
					l10.218-9.478l-7.263-9.522c1.062-1.821,1.937-3.793,2.586-5.895s1.039-4.223,1.186-6.325l11.367-3.774l-3.099-13.586
					l-11.885,1.531c-2.111-3.705-5.063-6.936-8.691-9.38l2.418-11.729l-13.315-4.108l-4.616,11.051
					c-4.373-0.027-8.632,0.979-12.463,2.849l-8.956-7.964l-10.217,9.477l7.263,9.521C393.413-3.415,392.54-1.441,391.891,0.661z
					 M421.853-1.326c5.666,1.748,8.841,7.758,7.094,13.423c-1.751,5.666-7.76,8.84-13.425,7.092
					c-5.665-1.747-8.841-7.758-7.092-13.422C410.178,0.099,416.188-3.076,421.853-1.326z"/>
			</g>
		</g>
	</g>
</g>
</svg>
