<?xml version="1.0" encoding="utf-8"?>
<!-- Generator: Adobe Illustrator 16.0.4, SVG Export Plug-In . SVG Version: 6.00 Build 0)  -->
<!DOCTYPE svg PUBLIC "-//W3C//DTD SVG 1.1//EN" "http://www.w3.org/Graphics/SVG/1.1/DTD/svg11.dtd">
<svg version="1.1" id="Layer_1" xmlns="http://www.w3.org/2000/svg" xmlns:xlink="http://www.w3.org/1999/xlink" x="0px" y="0px"
	 width="191.642px" height="102.594px" viewBox="45.978 65.291 191.642 102.594"
	 enable-background="new 45.978 65.291 191.642 102.594" xml:space="preserve">
<g>
	<g>
		
			<rect x="47.16" y="66.08" fill="#20231E" stroke="#CDCCAC" stroke-width="1.5773" stroke-miterlimit="10" width="45.742" height="45.742"/>
		
			<rect x="119.716" y="66.08" fill="#20231E" stroke="#CDCCAC" stroke-width="1.5773" stroke-miterlimit="10" width="45.742" height="45.742"/>
		
			<rect x="190.694" y="66.08" fill="#20231E" stroke="#CDCCAC" stroke-width="1.5773" stroke-miterlimit="10" width="45.742" height="45.742"/>
		<g>
			<g>
				<path fill="#CDCCAC" d="M150.122,75.098h-13.806c-3.804,0-6.899,3.096-6.899,6.898v13.92c0,3.803,3.095,6.898,6.899,6.898
					h13.806c3.803,0,6.898-3.096,6.898-6.898v-13.92C157.02,78.193,153.924,75.098,150.122,75.098z M136.316,77.652h13.806
					c2.395,0,4.343,1.949,4.343,4.344v2.375h-7.312c-1.071-0.763-2.38-1.215-3.792-1.215s-2.72,0.452-3.792,1.215h-7.595v-2.375
					C131.972,79.602,133.921,77.652,136.316,77.652z M146.081,89.709c0,1.5-1.221,2.721-2.721,2.721s-2.72-1.221-2.72-2.721
					c0-1.499,1.22-2.721,2.72-2.721S146.081,88.21,146.081,89.709z M150.122,100.26h-13.806c-2.395,0-4.344-1.949-4.344-4.344v-8.99
					h5.458c-0.398,0.846-0.623,1.789-0.623,2.783c0,3.614,2.939,6.553,6.553,6.553c3.612,0,6.553-2.938,6.553-6.553
					c0-0.994-0.225-1.938-0.623-2.783h5.175v8.99C154.464,98.311,152.516,100.26,150.122,100.26z"/>
				<path fill="#CDCCAC" d="M152.463,82.338c0,0.42-0.346,0.767-0.768,0.767h-2.367c-0.422,0-0.768-0.347-0.768-0.767V79.97
					c0-0.422,0.346-0.767,0.768-0.767h2.367c0.422,0,0.768,0.345,0.768,0.767V82.338z"/>
			</g>
		</g>
		<path fill="#CDCCAC" d="M216.192,104.494h-6.507V88.768h-3.253v-5.422h3.253v-3.253c0-4.423,1.835-7.054,7.052-7.054h4.342v5.424
			h-2.713c-2.029,0-2.167,0.755-2.167,2.168l-0.007,2.715h4.918l-0.574,5.422h-4.344V104.494z"/>
		<path fill="#CDCCAC" d="M86.337,86.376c-1.179,0.202-2.889-0.008-3.795-0.386c1.883-0.154,3.157-1.01,3.648-2.173
			c-0.678,0.418-2.785,0.873-3.948,0.439c-0.058-0.272-0.12-0.532-0.184-0.768c-0.886-3.259-3.921-5.883-7.101-5.567
			c0.256-0.103,0.515-0.199,0.779-0.287c0.349-0.126,2.403-0.461,2.08-1.186c-0.274-0.638-2.784,0.48-3.256,0.628
			c0.624-0.234,1.656-0.638,1.766-1.355c-0.954,0.131-1.893,0.585-2.618,1.24c0.262-0.28,0.461-0.624,0.502-0.994
			c-2.55,1.63-4.039,4.914-5.243,8.104c-0.946-0.917-1.786-1.641-2.538-2.045c-2.11-1.129-4.635-2.312-8.594-3.784
			c-0.123,1.312,0.648,3.057,2.862,4.216c-0.478-0.065-1.356,0.081-2.058,0.247c0.286,1.503,1.22,2.742,3.751,3.34
			c-1.158,0.076-1.755,0.342-2.297,0.908c0.526,1.045,1.813,2.275,4.124,2.022c-2.571,1.109-1.049,3.163,1.044,2.856
			c-3.568,3.691-9.195,3.418-12.425,0.334c8.434,11.505,26.771,6.803,29.503-4.278C84.389,87.903,85.591,87.178,86.337,86.376z"/>
	</g>
	<g>
		<g>
			
				<rect x="47.161" y="120.961" fill="#DD422A" stroke="#DD422A" stroke-width="2.3659" stroke-miterlimit="10" width="45.742" height="45.741"/>
			<path fill="#20231E" d="M86.337,141.256c-1.179,0.202-2.889-0.008-3.794-0.386c1.882-0.153,3.157-1.01,3.647-2.173
				c-0.678,0.418-2.785,0.873-3.948,0.44c-0.058-0.273-0.12-0.533-0.184-0.769c-0.885-3.259-3.92-5.883-7.1-5.566
				c0.255-0.103,0.515-0.2,0.778-0.288c0.349-0.126,2.403-0.461,2.08-1.186c-0.273-0.638-2.784,0.48-3.256,0.628
				c0.624-0.234,1.656-0.638,1.766-1.355c-0.955,0.131-1.893,0.583-2.618,1.241c0.262-0.281,0.461-0.625,0.502-0.996
				c-2.549,1.631-4.039,4.916-5.243,8.105c-0.946-0.918-1.786-1.642-2.538-2.045c-2.11-1.131-4.635-2.313-8.594-3.785
				c-0.123,1.312,0.647,3.057,2.863,4.217c-0.479-0.066-1.356,0.08-2.059,0.246c0.287,1.503,1.22,2.742,3.752,3.341
				c-1.158,0.075-1.755,0.341-2.297,0.907c0.526,1.045,1.813,2.275,4.124,2.022c-2.571,1.109-1.049,3.163,1.044,2.856
				c-3.567,3.691-9.194,3.418-12.425,0.334c8.434,11.505,26.771,6.804,29.502-4.278C84.39,142.784,85.592,142.058,86.337,141.256z"
				/>
		</g>
		
			<rect x="119.716" y="120.961" fill="#DD422A" stroke="#DD422A" stroke-width="2.3659" stroke-miterlimit="10" width="45.741" height="45.741"/>
		
			<rect x="190.695" y="120.961" fill="#DD422A" stroke="#DD422A" stroke-width="2.3659" stroke-miterlimit="10" width="45.741" height="45.741"/>
		<path fill="#20231E" d="M216.192,159.374h-6.506v-15.727h-3.254v-5.422h3.254v-3.253c0-4.424,1.834-7.054,7.051-7.054h4.342v5.423
			h-2.712c-2.03,0-2.167,0.756-2.167,2.169l-0.008,2.715h4.918l-0.574,5.422h-4.344V159.374z"/>
		<g>
			<path fill="#20231E" d="M146.096,143.9c0-1.5-1.221-2.72-2.721-2.72s-2.72,1.22-2.72,2.72c0,1.499,1.22,2.72,2.72,2.72
				S146.096,145.399,146.096,143.9z"/>
			<g>
				<path fill="#20231E" d="M143.375,137.349c1.412,0,2.721,0.45,3.793,1.213h5.146h4.721v-1.922c0-3.805-3.095-6.898-6.898-6.898
					h-13.806c-3.805,0-6.899,3.094-6.899,6.898v1.922h10.151C140.655,137.799,141.963,137.349,143.375,137.349z M149.03,133.934
					c0-0.421,0.345-0.767,0.767-0.767h2.368c0.422,0,0.766,0.346,0.766,0.767v2.369c0,0.421-0.344,0.767-0.766,0.767h-2.368
					c-0.422,0-0.767-0.346-0.767-0.767V133.934z"/>
				<path fill="#20231E" d="M149.928,143.9c0,3.612-2.939,6.553-6.553,6.553c-3.614,0-6.552-2.94-6.552-6.553
					c0-0.995,0.224-1.938,0.622-2.784h-8.013v9.442c0,3.804,3.094,6.899,6.899,6.899h13.806c3.804,0,6.898-3.096,6.898-6.899v-9.442
					h-7.73C149.704,141.962,149.928,142.905,149.928,143.9z"/>
			</g>
		</g>
	</g>
</g>
</svg>
