<?xml version="1.0" encoding="utf-8"?>
<!-- Generator: Adobe Illustrator 16.0.0, SVG Export Plug-In . SVG Version: 6.00 Build 0)  -->
<!DOCTYPE svg PUBLIC "-//W3C//DTD SVG 1.1//EN" "http://www.w3.org/Graphics/SVG/1.1/DTD/svg11.dtd">
<svg version="1.1" id="Layer_1" xmlns="http://www.w3.org/2000/svg" xmlns:xlink="http://www.w3.org/1999/xlink" x="0px" y="0px"
	 width="289px" height="337px" viewBox="0 0 289 337" enable-background="new 0 0 289 337" xml:space="preserve">
<g>
	<path fill="#CDCCAC" d="M81.889,123.861c-0.812,0.139-1.987-0.005-2.61-0.266c1.296-0.106,2.171-0.695,2.509-1.494
		c-0.466,0.287-1.916,0.6-2.715,0.302c-0.041-0.187-0.082-0.366-0.127-0.527c-0.609-2.24-2.697-4.047-4.885-3.829
		c0.176-0.071,0.354-0.138,0.537-0.197c0.238-0.087,1.652-0.317,1.43-0.816c-0.188-0.438-1.914,0.331-2.239,0.434
		c0.429-0.16,1.14-0.438,1.214-0.934c-0.656,0.091-1.303,0.402-1.801,0.854c0.18-0.193,0.316-0.431,0.346-0.685
		c-1.754,1.122-2.776,3.38-3.605,5.573c-0.65-0.63-1.229-1.128-1.745-1.406c-1.453-0.775-3.188-1.59-5.912-2.604
		c-0.084,0.902,0.446,2.104,1.968,2.899c-0.328-0.045-0.933,0.056-1.416,0.17c0.197,1.035,0.84,1.887,2.582,2.299
		c-0.798,0.052-1.209,0.234-1.58,0.624c0.361,0.72,1.246,1.563,2.836,1.392c-1.769,0.763-0.722,2.176,0.719,1.966
		c-2.454,2.538-6.325,2.352-8.547,0.229c5.801,7.914,18.414,4.68,20.293-2.942C80.549,124.912,81.375,124.413,81.889,123.861z"/>
	<g>
		
			<rect x="14.632" y="116.914" fill="#20231E" stroke="#CDCCAC" stroke-width="1.352" stroke-linecap="round" stroke-linejoin="round" stroke-miterlimit="10" width="26.288" height="14.44"/>
		
			<polygon fill="#20231E" stroke="#CDCCAC" stroke-width="1.352" stroke-linecap="round" stroke-linejoin="round" stroke-miterlimit="10" points="
			14.771,131.306 40.781,131.306 27.777,123.825 		"/>
		
			<polygon fill="#20231E" stroke="#CDCCAC" stroke-width="1.352" stroke-linecap="round" stroke-linejoin="round" stroke-miterlimit="10" points="
			14.771,116.928 40.781,116.928 27.777,126 		"/>
	</g>
	<g>
		<path fill="#CDCCAC" d="M95.198,125.593c0,3.988,3.231,7.222,7.222,7.222h7.438c3.988,0,7.221-3.232,7.221-7.222l0,0
			c0-3.989-3.232-7.223-7.221-7.223h-7.438C98.432,118.371,95.198,121.604,95.198,125.593L95.198,125.593z"/>
		<path fill="#CDCCAC" d="M111.155,131.146c0,0-0.578,4.718,2.601,5.777c0,0-6.55,0-6.646-5.2L111.155,131.146z"/>
	</g>
	<g>
		<path fill="#CDCCAC" d="M174.291,147.107l-0.023-9.097c-0.303-4.488-4.038-7.993-8.553-7.993c-1.072,0-2.099,0.199-3.045,0.561
			c0.187,0.701,0.289,1.437,0.289,2.195c0,3.657-2.304,6.785-5.533,8.016c0.885,3.331,3.728,5.873,7.217,6.312
			c0.166,0.019,0.332,0.035,0.503,0.047c0.014,0,0.026,0.003,0.045,0.004c0.172,0.012,0.349,0.018,0.524,0.018
			c0.164,0,0.328-0.006,0.489-0.016v-4.426c0,0,0,0-0.002,0c-0.159,0.019-0.321,0.03-0.487,0.03c-0.179,0-0.353-0.015-0.524-0.035
			c-0.021-0.003-0.039-0.007-0.062-0.011c-0.164-0.023-0.328-0.058-0.486-0.099c-1.778-0.476-3.094-2.095-3.094-4.021
			c0-2.296,1.869-4.165,4.166-4.165c2.207,0,4.033,1.723,4.158,3.926c0.006,0.079,0.006,0.159,0.006,0.239v8.515H174.291
			L174.291,147.107z"/>
		<path fill="#CDCCAC" d="M162.67,130.578c-0.886-3.331-3.728-5.873-7.218-6.312c-0.163-0.021-0.331-0.036-0.5-0.048
			c-0.016,0-0.028-0.002-0.045-0.003c-0.174-0.013-0.351-0.019-0.526-0.019c-0.164,0-0.326,0.007-0.488,0.017v4.426l0,0
			c0.16-0.021,0.322-0.031,0.488-0.031c0.18,0,0.353,0.015,0.523,0.037c0.021,0.003,0.04,0.006,0.062,0.009
			c0.166,0.024,0.328,0.059,0.484,0.099c1.779,0.477,3.096,2.097,3.096,4.021c0,2.299-1.869,4.166-4.166,4.166
			c-2.205,0-4.033-1.724-4.158-3.926c-0.004-0.079-0.008-0.159-0.008-0.24v-20.92h-4.41l0.023,21.502
			c0.303,4.489,4.038,7.993,8.553,7.993c1.07,0,2.099-0.199,3.045-0.562c-0.188-0.699-0.287-1.436-0.287-2.195
			C157.139,134.937,159.44,131.809,162.67,130.578z"/>
		<path fill="#CDCCAC" d="M162.959,132.773c0-0.76-0.104-1.494-0.289-2.195c-3.229,1.23-5.531,4.358-5.531,8.016
			c0,0.761,0.103,1.496,0.287,2.195C160.655,139.559,162.959,136.431,162.959,132.773z"/>
	</g>
</g>
<g opacity="0.5">
	<circle fill="#FFFFFF" cx="195.133" cy="127.566" r="13.834"/>
	
		<polyline fill="none" stroke="#141914" stroke-width="0.7155" stroke-linecap="round" stroke-linejoin="round" stroke-miterlimit="10" points="
		188.559,123.468 195.133,132.954 201.707,123.468 	"/>
</g>
<g>
	<g>
		
			<rect x="7.63" y="3" fill="#20231E" stroke="#CDCCAC" stroke-width="1.5773" stroke-miterlimit="10" width="45.742" height="45.742"/>
		
			<rect x="80.186" y="3" fill="#20231E" stroke="#CDCCAC" stroke-width="1.5773" stroke-miterlimit="10" width="45.742" height="45.742"/>
		
			<rect x="151.164" y="3" fill="#20231E" stroke="#CDCCAC" stroke-width="1.5773" stroke-miterlimit="10" width="45.742" height="45.742"/>
		<g>
			<g>
				<path fill="#CDCCAC" d="M110.592,12.017H96.786c-3.804,0-6.899,3.096-6.899,6.898v13.92c0,3.803,3.096,6.898,6.899,6.898h13.806
					c3.803,0,6.898-3.097,6.898-6.898v-13.92C117.49,15.112,114.394,12.017,110.592,12.017z M96.786,14.571h13.806
					c2.396,0,4.343,1.949,4.343,4.344v2.375h-7.312c-1.071-0.764-2.38-1.215-3.792-1.215c-1.412,0-2.72,0.451-3.792,1.215h-7.595
					v-2.375C92.443,16.521,94.391,14.571,96.786,14.571z M106.551,26.628c0,1.5-1.221,2.721-2.721,2.721s-2.72-1.221-2.72-2.721
					c0-1.499,1.22-2.721,2.72-2.721S106.551,25.129,106.551,26.628z M110.592,37.179H96.786c-2.396,0-4.344-1.949-4.344-4.344v-8.99
					H97.9c-0.398,0.846-0.623,1.789-0.623,2.783c0,3.614,2.938,6.553,6.553,6.553c3.612,0,6.553-2.938,6.553-6.553
					c0-0.994-0.225-1.938-0.623-2.783h5.175v8.99C114.934,35.229,112.987,37.179,110.592,37.179z"/>
				<path fill="#CDCCAC" d="M112.933,19.257c0,0.42-0.346,0.768-0.768,0.768h-2.367c-0.422,0-0.768-0.348-0.768-0.768V16.89
					c0-0.422,0.346-0.767,0.768-0.767h2.367c0.422,0,0.768,0.345,0.768,0.767V19.257z"/>
			</g>
		</g>
		<path fill="#CDCCAC" d="M176.662,41.414h-6.507V25.687h-3.253v-5.422h3.253v-3.253c0-4.423,1.835-7.054,7.052-7.054h4.342v5.424
			h-2.713c-2.029,0-2.166,0.755-2.166,2.168l-0.008,2.715h4.918l-0.574,5.422h-4.344V41.414L176.662,41.414z"/>
		<path fill="#CDCCAC" d="M46.807,23.295c-1.179,0.202-2.889-0.008-3.795-0.386c1.883-0.154,3.157-1.01,3.648-2.174
			c-0.678,0.418-2.785,0.873-3.948,0.439c-0.058-0.271-0.12-0.531-0.184-0.768c-0.887-3.26-3.921-5.883-7.102-5.567
			c0.256-0.103,0.516-0.198,0.779-0.287c0.349-0.126,2.403-0.461,2.08-1.187c-0.274-0.638-2.784,0.479-3.256,0.628
			c0.624-0.234,1.655-0.639,1.766-1.355c-0.954,0.131-1.893,0.586-2.618,1.24c0.263-0.279,0.461-0.624,0.502-0.994
			c-2.55,1.631-4.039,4.914-5.243,8.104c-0.945-0.916-1.785-1.641-2.537-2.045c-2.11-1.129-4.636-2.312-8.595-3.783
			c-0.123,1.312,0.648,3.057,2.862,4.216c-0.478-0.065-1.356,0.081-2.058,0.247c0.285,1.503,1.22,2.742,3.751,3.34
			c-1.158,0.076-1.756,0.342-2.298,0.908c0.526,1.045,1.813,2.275,4.124,2.021c-2.57,1.109-1.049,3.164,1.045,2.856
			c-3.568,3.69-9.195,3.418-12.426,0.334c8.435,11.505,26.771,6.803,29.503-4.278C44.86,24.821,46.061,24.097,46.807,23.295z"/>
	</g>
	<g>
		<g>
			
				<rect x="7.631" y="57.88" fill="#DD422A" stroke="#DD422A" stroke-width="2.3659" stroke-miterlimit="10" width="45.742" height="45.741"/>
			<path fill="#20231E" d="M46.807,78.175c-1.179,0.202-2.889-0.008-3.794-0.386c1.882-0.153,3.157-1.011,3.647-2.173
				c-0.678,0.418-2.785,0.873-3.948,0.439c-0.058-0.272-0.12-0.533-0.184-0.769c-0.886-3.259-3.92-5.884-7.101-5.566
				c0.255-0.104,0.516-0.2,0.778-0.288c0.349-0.125,2.403-0.461,2.08-1.186c-0.273-0.639-2.784,0.48-3.256,0.628
				c0.624-0.233,1.655-0.638,1.766-1.354c-0.955,0.131-1.893,0.582-2.618,1.24c0.263-0.281,0.461-0.625,0.502-0.996
				c-2.549,1.631-4.039,4.916-5.243,8.105c-0.945-0.918-1.785-1.643-2.537-2.045c-2.11-1.131-4.636-2.312-8.595-3.785
				c-0.123,1.312,0.647,3.057,2.863,4.217c-0.479-0.066-1.356,0.08-2.059,0.246c0.286,1.503,1.22,2.742,3.752,3.341
				c-1.158,0.075-1.755,0.341-2.297,0.907c0.525,1.045,1.812,2.275,4.123,2.021c-2.57,1.109-1.049,3.164,1.045,2.856
				c-3.567,3.69-9.194,3.418-12.426,0.334c8.435,11.505,26.771,6.804,29.502-4.278C44.861,79.704,46.062,78.978,46.807,78.175z"/>
		</g>
		
			<rect x="80.186" y="57.88" fill="#DD422A" stroke="#DD422A" stroke-width="2.3659" stroke-miterlimit="10" width="45.741" height="45.741"/>
		
			<rect x="151.166" y="57.88" fill="#DD422A" stroke="#DD422A" stroke-width="2.3659" stroke-miterlimit="10" width="45.74" height="45.741"/>
		<path fill="#20231E" d="M176.662,96.293h-6.506V80.565h-3.254v-5.422h3.254v-3.252c0-4.425,1.834-7.055,7.051-7.055h4.342v5.423
			h-2.711c-2.031,0-2.168,0.757-2.168,2.169l-0.008,2.715h4.918l-0.574,5.422h-4.344V96.293L176.662,96.293z"/>
		<g>
			<path fill="#20231E" d="M106.567,80.819c0-1.5-1.222-2.721-2.722-2.721s-2.72,1.221-2.72,2.721c0,1.498,1.22,2.72,2.72,2.72
				S106.567,82.317,106.567,80.819z"/>
			<g>
				<path fill="#20231E" d="M103.845,74.269c1.412,0,2.722,0.449,3.793,1.213h5.146h4.721V73.56c0-3.806-3.095-6.898-6.897-6.898
					H96.801c-3.805,0-6.898,3.094-6.898,6.898v1.922h10.15C101.125,74.718,102.433,74.269,103.845,74.269z M109.5,70.853
					c0-0.42,0.345-0.767,0.767-0.767h2.368c0.422,0,0.767,0.347,0.767,0.767v2.369c0,0.422-0.345,0.768-0.767,0.768h-2.368
					c-0.422,0-0.767-0.346-0.767-0.768V70.853z"/>
				<path fill="#20231E" d="M110.399,80.819c0,3.611-2.939,6.553-6.554,6.553c-3.613,0-6.552-2.939-6.552-6.553
					c0-0.995,0.224-1.938,0.622-2.784h-8.013v9.442c0,3.803,3.094,6.898,6.898,6.898h13.807c3.804,0,6.897-3.096,6.897-6.898v-9.442
					h-7.729C110.174,78.881,110.399,79.824,110.399,80.819z"/>
			</g>
		</g>
	</g>
</g>
<g>
	<g>
		<g>
			
				<path fill="none" stroke="#20231E" stroke-width="2.0021" stroke-linecap="round" stroke-linejoin="round" stroke-miterlimit="10" d="
				M25.482,179.594v44.246c0,2.211,1.793,4.004,4.004,4.004h29.231c2.211,0,4.004-1.793,4.004-4.004v-44.246H25.482z"/>
			<path fill="none" stroke="#20231E" stroke-width="3.6038" stroke-linejoin="round" stroke-miterlimit="10" d="M63.268,214.297
				h7.183c2.767,0,5.011-2.242,5.011-5.01V191.68c0-2.768-2.244-5.012-5.011-5.012h-7.183"/>
			<path fill="#20231E" d="M25.482,188.791v35.902c0,1.74,1.793,3.15,4.004,3.15h29.231c2.211,0,4.004-1.41,4.004-3.15v-35.902
				H25.482z M33.575,223c0,1.291-1.046,2.336-2.336,2.336s-2.336-1.045-2.336-2.336v-28.563c0-1.29,1.046-2.335,2.336-2.335
				s2.336,1.045,2.336,2.335V223z M42.117,223c0,1.291-1.046,2.336-2.335,2.336c-1.29,0-2.336-1.045-2.336-2.336v-28.563
				c0-1.29,1.046-2.335,2.336-2.335c1.289,0,2.335,1.045,2.335,2.335V223z M50.66,223c0,1.291-1.046,2.336-2.336,2.336
				s-2.336-1.045-2.336-2.336v-28.563c0-1.29,1.046-2.335,2.336-2.335s2.336,1.045,2.336,2.335V223z M59.202,223
				c0,1.291-1.046,2.336-2.336,2.336S54.53,224.291,54.53,223v-28.563c0-1.29,1.046-2.335,2.336-2.335s2.336,1.045,2.336,2.335V223z
				"/>
			<path fill="none" stroke="#20231E" stroke-width="2" stroke-linecap="round" stroke-linejoin="round" stroke-miterlimit="10" d="
				M67.219,172.553c0-3.892-3.107-7.045-6.94-7.045c-0.81,0-1.583,0.147-2.305,0.406c-0.48-7.188-6.374-12.869-13.579-12.869
				c-6.305,0-11.606,4.352-13.155,10.255c-1.182-0.742-2.57-1.179-4.062-1.179c-3.7,0-6.788,2.637-7.555,6.156
				c-0.205,0.48-0.32,1.008-0.32,1.563v33.732c0,2.17,1.732,3.93,3.87,3.93c2.138,0,2.069-1.76,2.069-3.93v-23.98l36.945,0.088
				C65.091,178.84,67.219,175.771,67.219,172.553z"/>
		</g>
	</g>
	<g>
		<g>
			<path fill="#20231E" d="M196.846,218.398c0,2.241-1.815,4.061-4.061,4.061h-60.013c-2.241,0-4.06-1.818-4.06-4.061v-50.155
				c0-2.241,1.817-4.06,4.06-4.06h60.015c2.242,0,4.059,1.818,4.059,4.06V218.398L196.846,218.398z"/>
			<rect x="131.924" y="177.238" fill="#EDEABC" width="61.708" height="42.209"/>
			<circle fill="#EDEABC" cx="170.262" cy="170.98" r="2.61"/>
			<circle fill="#EDEABC" cx="178.817" cy="170.98" r="2.61"/>
			<circle fill="#EDEABC" cx="187.371" cy="170.98" r="2.61"/>
			<path fill="#20231E" d="M140.423,200.06v-1.532l12.161-6.158v3.096l-8.075,3.83l8.075,3.828v3.098L140.423,200.06z
				 M167.455,184.389h3.35l-12.605,28.885h-3.383L167.455,184.389z M172.977,203.123l8.074-3.828l-8.074-3.83v-3.096l12.158,6.158
				v1.532l-12.158,6.159V203.123z"/>
		</g>
	</g>
	<g>
		<g>
			<path fill="none" stroke="#20231E" stroke-width="3.547" stroke-linecap="round" stroke-miterlimit="10" d="M283.971,189.162
				c-6.021-13.832-17.432-24.771-31.582-30.177"/>
			<g>
				<path fill="#20231E" d="M276.268,192.51c-5.122-11.77-14.831-21.076-26.875-25.676l-17.094,44.795L276.268,192.51z"/>
			</g>
			<circle fill="#EDEABC" cx="259.312" cy="186.08" r="4.195"/>
			<circle fill="#EDEABC" cx="244.584" cy="200.841" r="2.698"/>
			<path fill="#EDEABC" d="M249.979,185.857c0,1.325-1.072,2.398-2.396,2.398c-1.324,0-2.398-1.073-2.398-2.398
				c0-1.32,1.074-2.396,2.398-2.396C248.907,183.461,249.979,184.535,249.979,185.857z"/>
			<circle fill="#EDEABC" cx="253.91" cy="176.262" r="2.445"/>
			<circle fill="#EDEABC" cx="267.975" cy="188.492" r="2.752"/>
			<circle fill="#EDEABC" cx="255.133" cy="194.914" r="1.836"/>
		</g>
	</g>
	<g>
		
			<circle fill="none" stroke="#20231E" stroke-width="2" stroke-linecap="round" stroke-linejoin="round" stroke-miterlimit="10" cx="65.294" cy="258.952" r="6.356"/>
		<path fill="none" stroke="#20231E" stroke-width="2" stroke-linecap="round" stroke-linejoin="round" stroke-miterlimit="10" d="
			M83.345,266.885c-1.311-1.271-3.403-1.236-4.673,0.072l-9.37,9.676l-10.719-10.614c-0.619-0.612-1.454-0.956-2.325-0.956H40.497
			c-0.942,0-1.839,0.4-2.466,1.104L26.334,279.26c-1.216,1.359-1.097,3.451,0.264,4.666c0.631,0.562,1.417,0.842,2.201,0.842
			c0.908,0,1.813-0.373,2.466-1.104l10.71-11.988H47.5l-20.613,25.171H9.605c-2.527,0-4.576,2.048-4.576,4.575
			c0,2.524,2.049,4.576,4.576,4.576h19.45c1.371,0,2.671-0.617,3.539-1.679l9.163-11.188l9.654,9.554l-4.089,20.334
			c-0.498,2.479,1.106,4.892,3.584,5.389c0.304,0.06,0.608,0.091,0.907,0.091c2.135,0,4.044-1.502,4.481-3.676l4.576-22.753
			c0.305-1.511-0.173-3.073-1.268-4.157l-8.892-8.795l9.646-12.033l6.667,6.602c0.627,0.621,1.49,0.973,2.36,0.957
			c0.883-0.01,1.726-0.371,2.34-1.006l11.694-12.077C84.69,270.246,84.657,268.154,83.345,266.885z"/>
	</g>
	<g>
		<path id="path1786" fill="#20231E" d="M186.791,328.078c0,0,0-4.975,0-6.149c0-1.179,0.914-0.522,1.438-1.568
			s3.269-15.427-1.31-22.748c-4.576-7.321-9.805-8.368-16.08-6.537c-6.274,1.83-12.551,18.173-12.551,18.173
			s-8.236,3.008-9.938,5.49c-1.699,2.483-4.035,6.707-1.869,8.875c2.043,2.042,2.803,0.538,2.803,0.538
			c0.416-0.046,0.574,0.293,0.943,0.293c0.562,0,0.607-0.254,1.262-0.254c0.655,0,0.262,3.89,0.262,3.89"/>
		<path id="path1766" fill="#EDEABC" stroke="#20231E" stroke-width="1.5" stroke-linecap="round" stroke-linejoin="round" d="
			M167.817,274.912c0,0,1.187-3.164,3.931-3.164c2.745,0,3.45,3.934,3.469,5.943c0.014,1.879-0.867,5.18-4.623,5.18"/>
		<path id="path1820" fill="#EDEABC" d="M151.793,292.617l-0.178,3.038l11.082,4.647c0,0,4.67-2.698,6.074-14.656
			c0.357-3.038-8.215-5.488-8.215-4.596C160.559,286.605,157.156,292.26,151.793,292.617z"/>
		<path id="path1764" fill="#EDEABC" stroke="#20231E" stroke-width="1.5" stroke-linecap="round" stroke-linejoin="round" d="
			M152.535,275.215l-3.355,1.562l-0.312,8.133l2.656,2.581c0,0,0.146,4.189-1.154,5.058c-1.3,0.867,6.979,1.143,8.521-4.621
			c1.539-5.743,1.857-8.055,4.177-7.768c1.043,0.131,0.521-0.521,5.496,3.342c1.209,7.496-4.761,16.703-5.771,16.703
			c-1.734-0.289-11.613-4.861-11.613-4.861c-0.703,1.056-1.107,1.359-4.062,2.166c-4.379,1.195-2.959,5.439-1.228,6.74
			c1.732,1.299,5.058,2.744,7.367,2.021c2.312-0.723,13.754-4.006,15.488-4.006c1.732,0,3.033-0.049,3.756-1.301
			c0.43-0.746-2.566-5.717-2.076-17.672c0.168-4.041-3.879-8.804-4.021-14.146c-0.108-4.055-17.479-1.012-17.479-1.012
			L152.535,275.215z"/>
		<path id="path1756" fill="#20231E" d="M138.154,265.228c0,0,0.149-2.233,0.481-2.347c0.414-0.14,7.933,3.588,12.21,3.863
			c-1.519-3.727-2.07-17.453,2.139-28.975c7.426,0.938,15.76,3.625,25.002,5.484c0.289,0.06,0.865,0.691,0.396,1.002
			c-1.814,3.229-11.49,9.66-11.74,22.582c4.184-0.409,7.828-2.469,8.746-2.496c0.184-0.008,0.49,0.31,0.281,0.662
			c-1.521,2.968-1.438,3.518-1.438,3.518c-0.218,0.253-0.349,0.37-0.597,0.386C170.235,269.119,145.096,270.5,138.154,265.228z"/>
		<path id="path1758_1_" fill="#EDEABC" stroke="#20231E" stroke-linecap="round" stroke-linejoin="round" d="M152.961,275.506
			c0.006,0,0.008,0,0.008,0s-0.867-2.892-0.289-3.611"/>
		<path id="path1758" fill="#EDEABC" stroke="#20231E" stroke-width="1.5" stroke-linecap="round" stroke-linejoin="round" d="
			M149.646,283.448c4.801-6.655,7.655-4.813,7.655-1.442c-3.033,1.442-9.821,11.557-9.821,11.557
			c-2.815-1.848-4.044-3.773-4.044-8.812c-0.144-7.535,9.235-9.192,9.528-9.242"/>
		<path id="path1776" fill="none" stroke="#20231E" stroke-linecap="round" stroke-linejoin="round" d="M151.896,292.983
			c0,0.929-0.578,2.449-0.578,2.449"/>
		<path id="path1778" fill="#EDEABC" stroke="#20231E" stroke-width="1.5" stroke-linecap="round" stroke-linejoin="round" d="
			M154.57,275.402c0,0,0.875,2.604,3.844,2.753c2.229,0.111,5.357-2.159,5.062-4.683c-0.297-2.524-1.484-3.415-4.01-2.969"/>
		<path id="path1780" fill="#20231E" d="M157.158,279.982c0,0,7.418-4.411,15.166,5.2c6.004,7.448,11.479,2.338,11.479-0.375
			c0-4.12-6.875-4.828-6.875,1.387c-1.012,0.866-2.053-5.336,3.871-5.336c4.496,0,4.558,4.937,2.938,7.742
			c-1.543,2.672-7.532,6.194-13.146-1.251c-7.512-9.969-13.272-5.04-13.272-5.04L157.158,279.982z"/>
		<path id="path1782" fill="#20231E" d="M143.811,289.297c0,0-3.168,2.287-4.576,4.84c-1.027,1.861-4.7,4.713-7.83,1.582
			c-2.963-2.963,1.496-9.588,5.279-6.688c-0.672,0.518-2.937-1.039-4.398,1.496c-0.908,1.571-1.232,5.104,1.848,5.104
			c4.051,0,2.814-5.189,9.148-9.678"/>
		<path id="path1784" fill="#20231E" stroke="#20231E" stroke-miterlimit="10" d="M161.635,273.014
			c-0.672,0.041-0.996,0.82-0.569,1.197c0.59,0.521,1.103,0.062,1.187-0.188C162.457,273.41,162.276,272.976,161.635,273.014z"/>
		<path id="path1788" fill="none" stroke="#20231E" stroke-width="1.5" stroke-linecap="round" stroke-linejoin="round" d="
			M147.672,305.138c-0.555-0.739-1.572-2.865,1.062-4.483"/>
		<path id="path1790" fill="#20231E" d="M168.703,269.131l-0.555,4.99l-0.924,0.465l-2.242-5.674L168.703,269.131z"/>
		<path id="path1798" fill="#20231E" d="M142.944,270.012c-0.826-1.432,6.366-5.17,7.535-0.812c0.991,3.699,0.78,5.366,3.435,5.479
			c2.747,0.114,5.452-6.011,6.008-5.916c0.555,0.092,1.108,0.924,0.094,1.756c-1.018,0.832-3.631,5.476-6.562,5.085
			c-2.773-0.37-4.039-6.76-6.271-7.048C144.194,268.172,143.877,271.614,142.944,270.012z"/>
		<path id="path1800" fill="#EDEABC" stroke="#20231E" stroke-width="1.5" stroke-linecap="round" stroke-linejoin="round" d="
			M148.658,276.983c0,0-3.465-1.86-1.061-4.714c2.406-2.854,2.406-1.477,2.406-1.477c0.801,2.183,2.727,4.617,2.727,4.617
			L148.658,276.983z"/>
		<path id="path1802" fill="#20231E" stroke="#20231E" stroke-miterlimit="10" d="M150.998,273.648
			c0.271-0.396,1.283,1.025,1.09,1.348C151.928,275.188,149.266,275.541,150.998,273.648z"/>
		<path id="path1808" fill="#EDEABC" stroke="#20231E" stroke-linecap="round" stroke-linejoin="round" d="M160.75,304.422
			c0,0,2.664,0.805,3.021,1.604c0.985,2.222-0.679,4.994-0.738,6.29c-0.062,1.293,1.418,7.705,0.121,7.77
			c-1.295,0.062-2.524,0.801-2.647-1.051c-0.125-1.85-9.619,0.123-9.619,0.123l-2.775-12.404
			C148.11,306.752,155.94,303.252,160.75,304.422z"/>
		<path id="path1806" fill="#EDEABC" stroke="#20231E" stroke-width="1.5" stroke-linecap="round" stroke-linejoin="round" d="
			M151.317,321.256c0,0-4.81-9.618-5.672-11.653c-0.862-2.033,7.006-5.733,9.926-5.733c5.354,0,5.552-0.209,5.552,2.528
			c0,3.517-2.974-0.407-8.634,1.108c-3.416,0.916-3.562,0.675-2.897,3.146c1.063,3.978,2.01,0.878,5.303,0.247
			c4.766-0.914,5.734-0.934,5.734,1.495c0,1.763-0.076,2.832-4.688,1.958c-3.979-0.758-4.543,0.463-3.884,1.973
			c0.802,1.831,1.484,0.432,4.316,0.432c1.047,0,4.076,1.092,3.82,2.16c-0.297,1.242-1.143,2.002-3.328,0.737
			c-2.562-1.479-3.082,1.788-3.762,1.728C152.426,321.317,151.317,321.317,151.317,321.256z"/>
	</g>
	<g>
		<path fill="#20231E" d="M279.57,310.094c0,3.035-2.461,5.496-5.496,5.496h-19.42c-3.035,0-5.496-2.461-5.496-5.496v-53.676
			c0-3.035,2.461-5.496,5.496-5.496h19.42c3.035,0,5.496,2.461,5.496,5.496V310.094z"/>
		<circle fill="#EDEABC" cx="264.363" cy="311.01" r="2.748"/>
		<path fill="#EDEABC" d="M267.283,257.049c0,0.32-0.262,0.584-0.584,0.584h-4.672c-0.322,0-0.582-0.264-0.582-0.584l0,0
			c0-0.322,0.26-0.584,0.582-0.584h4.672C267.022,256.465,267.283,256.726,267.283,257.049L267.283,257.049z"/>
		<circle fill="#EDEABC" cx="264.363" cy="254.608" r="0.687"/>
		<g>
			<g>
				<rect id="SVGID_1_" x="251.358" y="260.631" fill="#EDEABC" width="26.015" height="46.166"/>
			</g>
		</g>
	</g>
</g>
<g>
	
		<rect x="205.77" y="2.737" fill="#20231E" stroke="#CDCCAC" stroke-width="0.7405" stroke-linecap="round" stroke-linejoin="round" stroke-miterlimit="10" width="21.42" height="14.44"/>
	
		<polygon fill="#20231E" stroke="#CDCCAC" stroke-width="0.7405" stroke-linecap="round" stroke-linejoin="round" stroke-miterlimit="10" points="
		205.908,17.128 227.051,17.128 216.479,9.648 	"/>
	
		<polygon fill="#20231E" stroke="#CDCCAC" stroke-width="0.7405" stroke-linecap="round" stroke-linejoin="round" stroke-miterlimit="10" points="
		205.908,2.75 227.051,2.75 216.479,11.822 	"/>
</g>
<g>
	<path fill="#20231E" stroke="#CDCCAC" stroke-width="0.7488" stroke-miterlimit="10" d="M221.643,40.057
		c0,2.962-3.389,3.005-5.164,3.005c-1.773,0-5.164-0.043-5.164-3.005s3.391-8.313,5.164-8.313
		C218.254,31.744,221.643,37.095,221.643,40.057z"/>
	<circle fill="#20231E" stroke="#CDCCAC" stroke-width="0.7488" stroke-miterlimit="10" cx="216.479" cy="28.683" r="4.493"/>
</g>
</svg>
