<?xml version="1.0" encoding="utf-8"?>
<!-- Generator: Adobe Illustrator 16.0.4, SVG Export Plug-In . SVG Version: 6.00 Build 0)  -->
<!DOCTYPE svg PUBLIC "-//W3C//DTD SVG 1.1//EN" "http://www.w3.org/Graphics/SVG/1.1/DTD/svg11.dtd">
<svg version="1.1" id="Layer_1" xmlns="http://www.w3.org/2000/svg" xmlns:xlink="http://www.w3.org/1999/xlink" x="0px" y="0px"
	 width="861.387px" height="438.025px" viewBox="-289.707 -131.005 861.387 438.025"
	 enable-background="new -289.707 -131.005 861.387 438.025" xml:space="preserve">
<g>
	<g>
		<g>
			<path fill="#56696A" d="M68.872,300.998c-0.549-3.285-14.236-8.213-19.164-15.879s-8.213-42.16-8.213-42.16l-55.227-15.149
				l-1.114-1.823l-2.764,0.76l-2.766-0.76l-1.114,1.823l-55.225,15.149c0,0-3.286,34.494-8.214,42.16
				c-4.926,7.666-18.615,12.594-19.164,15.879c-0.547,3.285,2.739,6.022,15.331,6.022c6.852,0,32.335,0,54.151,0
				c18.289,0,34.002,0,34.002,0c21.816,0,47.298,0,54.15,0C66.134,307.021,69.419,304.283,68.872,300.998z"/>
			<path fill="#4B5F60" d="M254.54,228.177c0,9.07-7.354,16.425-16.424,16.425H-273.28c-9.072,0-16.426-7.354-16.426-16.425
				v-342.756c0-9.071,7.354-16.426,16.426-16.426h511.396c9.07,0,16.424,7.354,16.424,16.426V228.177z"/>
			<g>
				<path fill="#788788" d="M-289.707,194.338v33.839c0,9.07,7.354,16.425,16.426,16.425h511.396c9.07,0,16.424-7.354,16.424-16.425
					v-33.839H-289.707z"/>
			</g>
		</g>
		<g>
			<defs>
				<rect id="SVGID_1_" x="-267.805" y="-109.104" width="501.54" height="285.812"/>
			</defs>
			<use xlink:href="#SVGID_1_"  overflow="visible" fill="#1E3738"/>
			<clipPath id="SVGID_2_">
				<use xlink:href="#SVGID_1_"  overflow="visible"/>
			</clipPath>
		</g>
	</g>
	<g>
		<path fill="#56696A" d="M571.68,131.691c0,6.753-5.477,12.226-12.227,12.226H385.575c-6.75,0-12.225-5.473-12.225-12.226V-99.239
			c0-6.753,5.475-12.226,12.225-12.226h173.879c6.75,0,12.227,5.473,12.227,12.226V131.691z"/>
		<g>
			<defs>
				<rect id="SVGID_3_" x="393.997" y="-89.188" width="157.033" height="206.48"/>
			</defs>
			<use xlink:href="#SVGID_3_"  overflow="visible" fill="#1E3738"/>
			<clipPath id="SVGID_4_">
				<use xlink:href="#SVGID_3_"  overflow="visible"/>
			</clipPath>
		</g>
		<path fill="#839192" d="M480.938,131.067c0,4.2-3.408,7.607-7.607,7.607c-4.201,0-7.609-3.407-7.609-7.607
			c0-4.201,3.408-7.607,7.609-7.607C477.53,123.46,480.938,126.866,480.938,131.067z"/>
	</g>
	<g>
		<path fill="#56696A" d="M352.506,92.368c0,8.199-6.648,14.845-14.846,14.845h-52.451c-8.197,0-14.844-6.646-14.844-14.845V-52.611
			c0-8.199,6.646-14.845,14.844-14.845h52.451c8.197,0,14.846,6.646,14.846,14.845V92.368z"/>
		<circle fill="#839192" cx="311.436" cy="94.842" r="7.422"/>
		<path fill="#1E3738" d="M319.321-50.911c0,0.872-0.705,1.578-1.576,1.578h-12.617c-0.871,0-1.576-0.706-1.576-1.578l0,0
			c0-0.87,0.705-1.577,1.576-1.577h12.617C318.616-52.488,319.321-51.781,319.321-50.911L319.321-50.911z"/>
		<circle fill="#1E3738" cx="311.436" cy="-57.498" r="1.855"/>
		<g>
			<defs>
				<rect id="SVGID_5_" x="276.305" y="-41.231" width="70.262" height="124.693"/>
			</defs>
			<use xlink:href="#SVGID_5_"  overflow="visible" fill="#1E3738"/>
			<clipPath id="SVGID_6_">
				<use xlink:href="#SVGID_5_"  overflow="visible"/>
			</clipPath>
		</g>
	</g>
</g>
</svg>
