<?xml version="1.0" encoding="utf-8"?>
<!-- Generator: Adobe Illustrator 16.0.4, SVG Export Plug-In . SVG Version: 6.00 Build 0)  -->
<!DOCTYPE svg PUBLIC "-//W3C//DTD SVG 1.1//EN" "http://www.w3.org/Graphics/SVG/1.1/DTD/svg11.dtd">
<svg version="1.1" id="Layer_1" xmlns="http://www.w3.org/2000/svg" xmlns:xlink="http://www.w3.org/1999/xlink" x="0px" y="0px"
	 width="281.716px" height="177.451px" viewBox="61.136 -53.981 281.716 177.451"
	 enable-background="new 61.136 -53.981 281.716 177.451" xml:space="preserve">
<g>
	<g>
		<g>
			
				<path fill="none" stroke="#20231E" stroke-width="2.0021" stroke-linecap="round" stroke-linejoin="round" stroke-miterlimit="10" d="
				M82.589-26.434v44.247c0,2.211,1.793,4.004,4.004,4.004h29.231c2.211,0,4.004-1.793,4.004-4.004v-44.247H82.589z"/>
			<path fill="none" stroke="#20231E" stroke-width="3.6038" stroke-linejoin="round" stroke-miterlimit="10" d="M120.375,8.27
				h7.183c2.767,0,5.011-2.243,5.011-5.011v-17.607c0-2.768-2.244-5.011-5.011-5.011h-7.183"/>
			<path fill="#20231E" d="M82.589-17.237v35.903c0,1.74,1.793,3.151,4.004,3.151h29.231c2.211,0,4.004-1.411,4.004-3.151v-35.903
				H82.589z M90.682,16.973c0,1.29-1.046,2.335-2.336,2.335s-2.336-1.045-2.336-2.335v-28.564c0-1.29,1.046-2.335,2.336-2.335
				s2.336,1.045,2.336,2.335V16.973z M99.224,16.973c0,1.29-1.046,2.335-2.335,2.335c-1.29,0-2.336-1.045-2.336-2.335v-28.564
				c0-1.29,1.046-2.335,2.336-2.335c1.289,0,2.335,1.045,2.335,2.335V16.973z M107.767,16.973c0,1.29-1.046,2.335-2.336,2.335
				s-2.336-1.045-2.336-2.335v-28.564c0-1.29,1.046-2.335,2.336-2.335s2.336,1.045,2.336,2.335V16.973z M116.309,16.973
				c0,1.29-1.046,2.335-2.336,2.335s-2.336-1.045-2.336-2.335v-28.564c0-1.29,1.046-2.335,2.336-2.335s2.336,1.045,2.336,2.335
				V16.973z"/>
			<path fill="none" stroke="#20231E" stroke-width="2" stroke-linecap="round" stroke-linejoin="round" stroke-miterlimit="10" d="
				M124.326-33.474c0-3.892-3.107-7.045-6.94-7.045c-0.81,0-1.583,0.147-2.305,0.406c-0.48-7.188-6.374-12.869-13.579-12.869
				c-6.305,0-11.606,4.352-13.155,10.255c-1.182-0.742-2.57-1.179-4.062-1.179c-3.7,0-6.788,2.637-7.555,6.156
				c-0.205,0.48-0.32,1.008-0.32,1.564v33.732c0,2.17,1.732,3.929,3.87,3.929s2.069-1.759,2.069-3.929v-23.981l36.945,0.088
				C122.198-27.188,124.326-30.256,124.326-33.474z"/>
		</g>
	</g>
	<g>
		<g>
			<path fill="#20231E" d="M253.953,12.371c0,2.241-1.817,4.06-4.06,4.06H189.88c-2.242,0-4.06-1.818-4.06-4.06v-50.155
				c0-2.241,1.817-4.06,4.06-4.06h60.014c2.242,0,4.06,1.818,4.06,4.06V12.371z"/>
			<rect x="189.032" y="-28.789" fill="#EDEABC" width="61.709" height="42.209"/>
			<circle fill="#EDEABC" cx="227.37" cy="-35.047" r="2.61"/>
			<circle fill="#EDEABC" cx="235.925" cy="-35.047" r="2.61"/>
			<circle fill="#EDEABC" cx="244.479" cy="-35.047" r="2.61"/>
			<path fill="#20231E" d="M197.53-5.968V-7.5l12.159-6.159v3.096l-8.074,3.83l8.074,3.829v3.097L197.53-5.968z M224.562-21.638
				h3.351L215.307,7.246h-3.383L224.562-21.638z M230.084-2.904l8.074-3.829l-8.074-3.83v-3.096L242.243-7.5v1.532l-12.159,6.16
				V-2.904z"/>
		</g>
	</g>
	<g>
		<g>
			<path fill="none" stroke="#20231E" stroke-width="3.547" stroke-linecap="round" stroke-miterlimit="10" d="M341.078-16.864
				c-6.021-13.832-17.432-24.771-31.582-30.177"/>
			<g>
				<path fill="#20231E" d="M333.375-13.517c-5.123-11.77-14.832-21.077-26.875-25.677L289.406,5.601L333.375-13.517z"/>
			</g>
			<circle fill="#EDEABC" cx="316.418" cy="-19.948" r="4.195"/>
			<circle fill="#EDEABC" cx="301.692" cy="-5.186" r="2.698"/>
			<path fill="#EDEABC" d="M307.086-20.17c0,1.325-1.072,2.398-2.396,2.398s-2.398-1.073-2.398-2.398
				c0-1.321,1.074-2.397,2.398-2.397S307.086-21.491,307.086-20.17z"/>
			<circle fill="#EDEABC" cx="311.018" cy="-29.765" r="2.445"/>
			<circle fill="#EDEABC" cx="325.082" cy="-17.534" r="2.752"/>
			<circle fill="#EDEABC" cx="312.24" cy="-11.113" r="1.836"/>
		</g>
	</g>
	<g>
		
			<circle fill="none" stroke="#20231E" stroke-width="2" stroke-linecap="round" stroke-linejoin="round" stroke-miterlimit="10" cx="122.401" cy="52.924" r="6.356"/>
		<path fill="none" stroke="#20231E" stroke-width="2" stroke-linecap="round" stroke-linejoin="round" stroke-miterlimit="10" d="
			M140.452,60.857c-1.311-1.271-3.403-1.236-4.673,0.073l-9.37,9.676L115.69,59.991c-0.619-0.612-1.454-0.956-2.325-0.956H97.603
			c-0.942,0-1.839,0.401-2.466,1.103L83.441,73.232c-1.216,1.36-1.097,3.451,0.264,4.667c0.631,0.562,1.417,0.84,2.201,0.84
			c0.908,0,1.813-0.373,2.466-1.104l10.71-11.989h5.525L83.994,90.817H66.712c-2.527,0-4.576,2.048-4.576,4.576
			c0,2.525,2.049,4.576,4.576,4.576h19.45c1.371,0,2.671-0.617,3.539-1.678l9.163-11.188l9.654,9.553l-4.089,20.334
			c-0.498,2.479,1.106,4.892,3.584,5.389c0.304,0.06,0.608,0.091,0.907,0.091c2.135,0,4.044-1.503,4.481-3.676l4.576-22.753
			c0.305-1.511-0.173-3.073-1.268-4.157l-8.892-8.795l9.646-12.035l6.667,6.602c0.627,0.622,1.49,0.973,2.36,0.957
			c0.883-0.009,1.726-0.371,2.34-1.006l11.694-12.077C141.797,64.22,141.764,62.127,140.452,60.857z"/>
	</g>
	<g>
		<path id="path1786" fill="#20231E" d="M243.898,122.052c0,0,0-4.975,0-6.15c0-1.178,0.914-0.523,1.438-1.569
			s3.268-15.427-1.308-22.748s-9.805-8.368-16.08-6.537c-6.276,1.83-12.552,18.172-12.552,18.172s-8.236,3.007-9.936,5.491
			s-4.036,6.707-1.869,8.875c2.043,2.042,2.801,0.538,2.801,0.538c0.416-0.046,0.575,0.293,0.945,0.293
			c0.562,0,0.607-0.254,1.261-0.254s0.261,3.89,0.261,3.89"/>
		<path id="path1766" fill="#EDEABC" stroke="#20231E" stroke-width="1.5" stroke-linecap="round" stroke-linejoin="round" d="
			M224.925,68.885c0,0,1.185-3.164,3.929-3.164c2.745,0,3.451,3.933,3.468,5.944c0.015,1.879-0.866,5.18-4.622,5.18"/>
		<path id="path1820" fill="#EDEABC" d="M208.9,86.591l-0.178,3.038l11.082,4.647c0,0,4.67-2.698,6.076-14.656
			c0.357-3.038-8.215-5.488-8.215-4.594C217.666,80.578,214.264,86.233,208.9,86.591z"/>
		<path id="path1764" fill="#EDEABC" stroke="#20231E" stroke-width="1.5" stroke-linecap="round" stroke-linejoin="round" d="
			M209.642,69.188l-3.354,1.563l-0.314,8.133l2.658,2.581c0,0,0.145,4.189-1.156,5.057c-1.3,0.866,6.979,1.142,8.523-4.622
			c1.539-5.743,1.857-8.055,4.175-7.766c1.044,0.13,0.519-0.522,5.496,3.341c1.21,7.495-4.76,16.703-5.771,16.703
			c-1.734-0.289-11.613-4.861-11.613-4.861c-0.703,1.055-1.108,1.359-4.062,2.166c-4.379,1.196-2.959,5.44-1.225,6.74
			c1.732,1.3,5.055,2.744,7.367,2.022c2.311-0.723,13.754-4.006,15.488-4.006c1.732,0,3.033-0.049,3.756-1.3
			c0.43-0.746-2.567-5.716-2.076-17.671c0.167-4.041-3.879-8.804-4.023-14.148c-0.109-4.054-17.479-1.011-17.479-1.011
			L209.642,69.188z"/>
		<path id="path1756" fill="#20231E" d="M195.261,59.2c0,0,0.149-2.234,0.482-2.346c0.414-0.139,7.933,3.587,12.21,3.863
			c-1.518-3.726-2.069-17.453,2.139-28.974c7.426,0.937,15.76,3.625,25.002,5.485c0.289,0.059,0.866,0.692,0.397,1.002
			C233.676,41.46,224,47.89,223.75,60.812c4.184-0.409,7.828-2.468,8.746-2.496c0.183-0.007,0.49,0.309,0.282,0.663
			c-1.519,2.967-1.437,3.516-1.437,3.516c-0.217,0.253-0.349,0.37-0.596,0.386C227.343,63.093,202.204,64.472,195.261,59.2z"/>
		<path id="path1758_1_" fill="#EDEABC" stroke="#20231E" stroke-linecap="round" stroke-linejoin="round" d="M210.069,69.479
			c0.005-0.001,0.007-0.001,0.007-0.001s-0.867-2.89-0.289-3.611"/>
		<path id="path1758" fill="#EDEABC" stroke="#20231E" stroke-width="1.5" stroke-linecap="round" stroke-linejoin="round" d="
			M206.752,77.422c4.801-6.656,7.656-4.815,7.656-1.444c-3.033,1.444-9.822,11.557-9.822,11.557
			c-2.815-1.848-4.044-3.774-4.044-8.812c-0.144-7.536,9.233-9.193,9.527-9.243"/>
		<path id="path1776" fill="none" stroke="#20231E" stroke-linecap="round" stroke-linejoin="round" d="M209.002,86.956
			c0,0.928-0.578,2.449-0.578,2.449"/>
		<path id="path1778" fill="#EDEABC" stroke="#20231E" stroke-width="1.5" stroke-linecap="round" stroke-linejoin="round" d="
			M211.678,69.375c0,0,0.875,2.604,3.844,2.753c2.229,0.111,5.358-2.159,5.062-4.683c-0.297-2.524-1.485-3.415-4.009-2.969"/>
		<path id="path1780" fill="#20231E" d="M214.265,73.955c0,0,7.419-4.411,15.167,5.2c6.004,7.449,11.479,2.338,11.479-0.375
			c0-4.12-6.875-4.828-6.875,1.387c-1.012,0.866-2.053-5.336,3.87-5.336c4.496,0,4.558,4.937,2.938,7.742
			c-1.543,2.672-7.533,6.194-13.145-1.251c-7.512-9.968-13.272-5.04-13.272-5.04L214.265,73.955z"/>
		<path id="path1782" fill="#20231E" d="M200.918,83.27c0,0-3.168,2.287-4.576,4.839c-1.027,1.863-4.7,4.713-7.83,1.583
			c-2.963-2.963,1.496-9.589,5.279-6.687c-0.672,0.516-2.936-1.039-4.398,1.496c-0.908,1.571-1.233,5.104,1.848,5.104
			c4.051,0,2.814-5.191,9.148-9.678"/>
		<path id="path1784" fill="#20231E" stroke="#20231E" stroke-miterlimit="10" d="M218.742,66.987
			c-0.672,0.04-0.995,0.82-0.57,1.197c0.589,0.521,1.101,0.061,1.186-0.189C219.564,67.384,219.383,66.948,218.742,66.987z"/>
		<path id="path1788" fill="none" stroke="#20231E" stroke-width="1.5" stroke-linecap="round" stroke-linejoin="round" d="
			M204.779,99.11c-0.555-0.739-1.572-2.865,1.062-4.483"/>
		<path id="path1790" fill="#20231E" d="M225.811,63.103l-0.555,4.992l-0.924,0.463l-2.242-5.673L225.811,63.103z"/>
		<path id="path1798" fill="#20231E" d="M200.051,63.984c-0.826-1.431,6.368-5.17,7.536-0.812c0.991,3.699,0.78,5.366,3.432,5.478
			c2.749,0.115,5.454-6.009,6.009-5.916c0.555,0.092,1.109,0.924,0.094,1.756c-1.018,0.832-3.631,5.476-6.564,5.085
			c-2.773-0.37-4.039-6.759-6.271-7.047C201.301,62.144,200.984,65.587,200.051,63.984z"/>
		<path id="path1800" fill="#EDEABC" stroke="#20231E" stroke-width="1.5" stroke-linecap="round" stroke-linejoin="round" d="
			M205.765,70.956c0,0-3.464-1.86-1.059-4.714c2.405-2.854,2.405-1.476,2.405-1.476c0.801,2.182,2.727,4.618,2.727,4.618
			L205.765,70.956z"/>
		<path id="path1802" fill="#20231E" stroke="#20231E" stroke-miterlimit="10" d="M208.105,67.621
			c0.272-0.396,1.283,1.026,1.09,1.347C209.035,69.16,206.373,69.513,208.105,67.621z"/>
		<path id="path1808" fill="#EDEABC" stroke="#20231E" stroke-linecap="round" stroke-linejoin="round" d="M217.857,98.396
			c0,0,2.665,0.803,3.021,1.603c0.986,2.221-0.679,4.994-0.74,6.29c-0.061,1.293,1.418,7.705,0.123,7.768
			c-1.295,0.062-2.527,0.801-2.65-1.049c-0.124-1.85-9.618,0.123-9.618,0.123l-2.775-12.405
			C205.218,100.726,213.048,97.225,217.857,98.396z"/>
		<path id="path1806" fill="#EDEABC" stroke="#20231E" stroke-width="1.5" stroke-linecap="round" stroke-linejoin="round" d="
			M208.424,115.229c0,0-4.809-9.619-5.672-11.654c-0.862-2.033,7.006-5.733,9.926-5.733c5.356,0,5.55-0.21,5.55,2.528
			c0,3.516-2.971-0.407-8.632,1.109c-3.416,0.916-3.561,0.674-2.898,3.145c1.064,3.976,2.01,0.878,5.303,0.247
			c4.765-0.914,5.734-0.932,5.734,1.495c0,1.763-0.076,2.832-4.687,1.958c-3.979-0.756-4.544,0.463-3.884,1.973
			c0.801,1.831,1.484,0.43,4.316,0.43c1.048,0,4.077,1.092,3.822,2.16c-0.297,1.244-1.143,2.003-3.329,0.739
			c-2.562-1.479-3.083,1.788-3.761,1.726C209.533,115.29,208.424,115.29,208.424,115.229z"/>
	</g>
	<g>
		<path fill="#20231E" d="M336.678,104.067c0,3.035-2.461,5.496-5.496,5.496h-19.42c-3.035,0-5.496-2.461-5.496-5.496V50.391
			c0-3.036,2.461-5.496,5.496-5.496h19.42c3.035,0,5.496,2.46,5.496,5.496V104.067z"/>
		<circle fill="#EDEABC" cx="321.471" cy="104.983" r="2.748"/>
		<path fill="#EDEABC" d="M324.391,51.021c0,0.322-0.262,0.584-0.584,0.584h-4.672c-0.322,0-0.582-0.262-0.582-0.584l0,0
			c0-0.322,0.26-0.584,0.582-0.584h4.672C324.129,50.437,324.391,50.698,324.391,51.021L324.391,51.021z"/>
		<circle fill="#EDEABC" cx="321.472" cy="48.581" r="0.687"/>
		<g>
			<defs>
				<rect id="SVGID_1_" x="308.465" y="54.604" width="26.014" height="46.167"/>
			</defs>
			<use xlink:href="#SVGID_1_"  overflow="visible" fill="#EDEABC"/>
			<clipPath id="SVGID_2_">
				<use xlink:href="#SVGID_1_"  overflow="visible"/>
			</clipPath>
		</g>
	</g>
</g>
</svg>
